<svg width="147" height="112" viewBox="0 0 147 112" fill="none" xmlns="http://www.w3.org/2000/svg">
<path d="M120.451 85.0683C121.634 67.7944 117.786 50.496 103.296 37.7702C90.2169 26.2838 72.3654 24.2303 63.7293 41.374C59.6411 49.4894 60.9996 61.35 69.9524 66.4277C79.9265 72.0847 87.8326 63.2038 87.5604 56.2908C86.9247 40.1447 56.9324 41.9721 36.4783 41.5705C12.2558 41.0949 0.496544 21.5522 0.646128 21.4872" stroke="white" stroke-miterlimit="1.5" stroke-linecap="round" stroke-linejoin="round"/>
<path d="M137.467 72.3192C135.336 72.8632 133.677 74.1047 131.951 75.2716C126.282 79.1026 121.55 84.7686 120.37 90.9983C119.153 84.2921 114.951 75.9935 107.297 73.4281" stroke="white" stroke-miterlimit="1.5" stroke-linecap="round" stroke-linejoin="round"/>
</svg>
